<svg width="89" height="20" viewBox="0 0 89 20" fill="none" xmlns="http://www.w3.org/2000/svg">
<path d="M7.62695 0.78125V15H4.70703V0.78125H7.62695ZM12.002 0.78125V3.07617H0.400391V0.78125H12.002ZM17.4414 15.1953C16.6211 15.1953 15.8854 15.0651 15.2344 14.8047C14.5833 14.5378 14.0299 14.1699 13.5742 13.7012C13.125 13.2324 12.7799 12.6888 12.5391 12.0703C12.2982 11.4453 12.1777 10.7812 12.1777 10.0781V9.6875C12.1777 8.88672 12.2917 8.1543 12.5195 7.49023C12.7474 6.82617 13.0729 6.25 13.4961 5.76172C13.9258 5.27344 14.4466 4.89909 15.0586 4.63867C15.6706 4.37174 16.3607 4.23828 17.1289 4.23828C17.8776 4.23828 18.5417 4.36198 19.1211 4.60938C19.7005 4.85677 20.1855 5.20833 20.5762 5.66406C20.9733 6.11979 21.2728 6.66667 21.4746 7.30469C21.6764 7.9362 21.7773 8.63932 21.7773 9.41406V10.5859H13.3789V8.71094H19.0137V8.49609C19.0137 8.10547 18.9421 7.75716 18.7988 7.45117C18.6621 7.13867 18.4538 6.89128 18.1738 6.70898C17.8939 6.52669 17.5358 6.43555 17.0996 6.43555C16.7285 6.43555 16.4095 6.51693 16.1426 6.67969C15.8757 6.84245 15.6576 7.07031 15.4883 7.36328C15.3255 7.65625 15.2018 8.0013 15.1172 8.39844C15.0391 8.78906 15 9.21875 15 9.6875V10.0781C15 10.5013 15.0586 10.8919 15.1758 11.25C15.2995 11.6081 15.472 11.9173 15.6934 12.1777C15.9212 12.4382 16.1947 12.64 16.5137 12.7832C16.8392 12.9264 17.207 12.998 17.6172 12.998C18.125 12.998 18.597 12.9004 19.0332 12.7051C19.4759 12.5033 19.8568 12.2005 20.1758 11.7969L21.543 13.2812C21.3216 13.6003 21.0189 13.9062 20.6348 14.1992C20.2572 14.4922 19.8014 14.7331 19.2676 14.9219C18.7337 15.1042 18.125 15.1953 17.4414 15.1953ZM26.3477 0V15H23.5254V0H26.3477ZM33.5352 15.1953C32.7148 15.1953 31.9792 15.0651 31.3281 14.8047C30.6771 14.5378 30.1237 14.1699 29.668 13.7012C29.2188 13.2324 28.8737 12.6888 28.6328 12.0703C28.3919 11.4453 28.2715 10.7812 28.2715 10.0781V9.6875C28.2715 8.88672 28.3854 8.1543 28.6133 7.49023C28.8411 6.82617 29.1667 6.25 29.5898 5.76172C30.0195 5.27344 30.5404 4.89909 31.1523 4.63867C31.7643 4.37174 32.4544 4.23828 33.2227 4.23828C33.9714 4.23828 34.6354 4.36198 35.2148 4.60938C35.7943 4.85677 36.2793 5.20833 36.6699 5.66406C37.0671 6.11979 37.3665 6.66667 37.5684 7.30469C37.7702 7.9362 37.8711 8.63932 37.8711 9.41406V10.5859H29.4727V8.71094H35.1074V8.49609C35.1074 8.10547 35.0358 7.75716 34.8926 7.45117C34.7559 7.13867 34.5475 6.89128 34.2676 6.70898C33.9876 6.52669 33.6296 6.43555 33.1934 6.43555C32.8223 6.43555 32.5033 6.51693 32.2363 6.67969C31.9694 6.84245 31.7513 7.07031 31.582 7.36328C31.4193 7.65625 31.2956 8.0013 31.2109 8.39844C31.1328 8.78906 31.0938 9.21875 31.0938 9.6875V10.0781C31.0938 10.5013 31.1523 10.8919 31.2695 11.25C31.3932 11.6081 31.5658 11.9173 31.7871 12.1777C32.015 12.4382 32.2884 12.64 32.6074 12.7832C32.9329 12.9264 33.3008 12.998 33.7109 12.998C34.2188 12.998 34.6908 12.9004 35.127 12.7051C35.5697 12.5033 35.9505 12.2005 36.2695 11.7969L37.6367 13.2812C37.4154 13.6003 37.1126 13.9062 36.7285 14.1992C36.3509 14.4922 35.8952 14.7331 35.3613 14.9219C34.8275 15.1042 34.2188 15.1953 33.5352 15.1953ZM46.1621 4.43359H48.7109V14.6484C48.7109 15.612 48.4961 16.429 48.0664 17.0996C47.6432 17.7767 47.0508 18.2878 46.2891 18.6328C45.5273 18.9844 44.6419 19.1602 43.6328 19.1602C43.1901 19.1602 42.7214 19.1016 42.2266 18.9844C41.7383 18.8672 41.2695 18.6849 40.8203 18.4375C40.3776 18.1901 40.0065 17.8776 39.707 17.5L40.9473 15.8398C41.2728 16.2174 41.6504 16.5104 42.0801 16.7188C42.5098 16.9336 42.985 17.041 43.5059 17.041C44.0137 17.041 44.4434 16.9466 44.7949 16.7578C45.1465 16.5755 45.4167 16.3053 45.6055 15.9473C45.7943 15.5957 45.8887 15.1693 45.8887 14.668V6.875L46.1621 4.43359ZM39.0527 9.84375V9.63867C39.0527 8.83138 39.1504 8.09896 39.3457 7.44141C39.5475 6.77734 39.8307 6.20768 40.1953 5.73242C40.5664 5.25716 41.0156 4.88932 41.543 4.62891C42.0703 4.36849 42.666 4.23828 43.3301 4.23828C44.0332 4.23828 44.6224 4.36849 45.0977 4.62891C45.5729 4.88932 45.9635 5.26042 46.2695 5.74219C46.5755 6.21745 46.8132 6.7806 46.9824 7.43164C47.1582 8.07617 47.2949 8.78255 47.3926 9.55078V10C47.2949 10.7357 47.1484 11.4193 46.9531 12.0508C46.7578 12.6823 46.5007 13.2357 46.1816 13.7109C45.8626 14.1797 45.4655 14.5443 44.9902 14.8047C44.5215 15.0651 43.9616 15.1953 43.3105 15.1953C42.6595 15.1953 42.0703 15.0618 41.543 14.7949C41.0221 14.528 40.5762 14.1536 40.2051 13.6719C39.834 13.1901 39.5475 12.6237 39.3457 11.9727C39.1504 11.3216 39.0527 10.612 39.0527 9.84375ZM41.8652 9.63867V9.84375C41.8652 10.2799 41.9076 10.6868 41.9922 11.0645C42.0768 11.4421 42.207 11.7773 42.3828 12.0703C42.5651 12.3568 42.7897 12.5814 43.0566 12.7441C43.3301 12.9004 43.6523 12.9785 44.0234 12.9785C44.5378 12.9785 44.9577 12.8711 45.2832 12.6562C45.6087 12.4349 45.8529 12.1322 46.0156 11.748C46.1784 11.3639 46.2728 10.9212 46.2988 10.4199V9.14062C46.2858 8.73047 46.2305 8.36263 46.1328 8.03711C46.0352 7.70508 45.8984 7.42188 45.7227 7.1875C45.5469 6.95312 45.319 6.77083 45.0391 6.64062C44.7591 6.51042 44.4271 6.44531 44.043 6.44531C43.6719 6.44531 43.3496 6.52995 43.0762 6.69922C42.8092 6.86198 42.5846 7.08659 42.4023 7.37305C42.2266 7.65951 42.0931 7.99805 42.002 8.38867C41.9108 8.77279 41.8652 9.18945 41.8652 9.63867ZM53.7109 6.73828V15H50.8984V4.43359H53.5449L53.7109 6.73828ZM56.8945 4.36523L56.8457 6.97266C56.709 6.95312 56.543 6.93685 56.3477 6.92383C56.1589 6.9043 55.9863 6.89453 55.8301 6.89453C55.4329 6.89453 55.0879 6.94661 54.7949 7.05078C54.5085 7.14844 54.2676 7.29492 54.0723 7.49023C53.8835 7.68555 53.7402 7.92318 53.6426 8.20312C53.5514 8.48307 53.4993 8.80208 53.4863 9.16016L52.9199 8.98438C52.9199 8.30078 52.9883 7.67253 53.125 7.09961C53.2617 6.52018 53.4603 6.01562 53.7207 5.58594C53.9876 5.15625 54.3132 4.82422 54.6973 4.58984C55.0814 4.35547 55.5208 4.23828 56.0156 4.23828C56.1719 4.23828 56.3314 4.2513 56.4941 4.27734C56.6569 4.29688 56.7904 4.32617 56.8945 4.36523ZM63.5938 12.6172V7.91016C63.5938 7.57161 63.5384 7.2819 63.4277 7.04102C63.3171 6.79362 63.1445 6.60156 62.9102 6.46484C62.6823 6.32812 62.3861 6.25977 62.0215 6.25977C61.709 6.25977 61.4388 6.3151 61.2109 6.42578C60.9831 6.52995 60.8073 6.68294 60.6836 6.88477C60.5599 7.08008 60.498 7.3112 60.498 7.57812H57.6855C57.6855 7.12891 57.7897 6.70247 57.998 6.29883C58.2064 5.89518 58.5091 5.54036 58.9062 5.23438C59.3034 4.92188 59.7754 4.67773 60.3223 4.50195C60.8757 4.32617 61.4941 4.23828 62.1777 4.23828C62.998 4.23828 63.7272 4.375 64.3652 4.64844C65.0033 4.92188 65.5046 5.33203 65.8691 5.87891C66.2402 6.42578 66.4258 7.10938 66.4258 7.92969V12.4512C66.4258 13.0306 66.4616 13.5059 66.5332 13.877C66.6048 14.2415 66.709 14.5605 66.8457 14.834V15H64.0039C63.8672 14.7135 63.763 14.3555 63.6914 13.9258C63.6263 13.4896 63.5938 13.0534 63.5938 12.6172ZM63.9648 8.56445L63.9844 10.1562H62.4121C62.041 10.1562 61.7188 10.1986 61.4453 10.2832C61.1719 10.3678 60.9473 10.4883 60.7715 10.6445C60.5957 10.7943 60.4655 10.9701 60.3809 11.1719C60.3027 11.3737 60.2637 11.5951 60.2637 11.8359C60.2637 12.0768 60.319 12.2949 60.4297 12.4902C60.5404 12.679 60.6999 12.8288 60.9082 12.9395C61.1165 13.0436 61.3607 13.0957 61.6406 13.0957C62.0638 13.0957 62.4316 13.0111 62.7441 12.8418C63.0566 12.6725 63.2975 12.4642 63.4668 12.2168C63.6426 11.9694 63.7337 11.735 63.7402 11.5137L64.4824 12.7051C64.3783 12.972 64.235 13.2487 64.0527 13.5352C63.877 13.8216 63.6523 14.0918 63.3789 14.3457C63.1055 14.5931 62.7767 14.7982 62.3926 14.9609C62.0085 15.1172 61.5527 15.1953 61.0254 15.1953C60.3548 15.1953 59.7461 15.0618 59.1992 14.7949C58.6589 14.5215 58.2292 14.1471 57.9102 13.6719C57.5977 13.1901 57.4414 12.6432 57.4414 12.0312C57.4414 11.4779 57.5456 10.9863 57.7539 10.5566C57.9622 10.127 58.2682 9.76562 58.6719 9.47266C59.082 9.17318 59.5931 8.94857 60.2051 8.79883C60.8171 8.64258 61.5267 8.56445 62.334 8.56445H63.9648ZM71.4062 6.46484V19.0625H68.5938V4.43359H71.2012L71.4062 6.46484ZM78.0957 9.59961V9.80469C78.0957 10.5729 78.0046 11.2858 77.8223 11.9434C77.6465 12.6009 77.3861 13.1738 77.041 13.6621C76.696 14.1439 76.2663 14.5215 75.752 14.7949C75.2441 15.0618 74.6582 15.1953 73.9941 15.1953C73.3496 15.1953 72.7897 15.0651 72.3145 14.8047C71.8392 14.5443 71.4388 14.1797 71.1133 13.7109C70.7943 13.2357 70.5371 12.6855 70.3418 12.0605C70.1465 11.4355 69.9967 10.765 69.8926 10.0488V9.51172C69.9967 8.74349 70.1465 8.04036 70.3418 7.40234C70.5371 6.75781 70.7943 6.20117 71.1133 5.73242C71.4388 5.25716 71.8359 4.88932 72.3047 4.62891C72.7799 4.36849 73.3366 4.23828 73.9746 4.23828C74.6452 4.23828 75.2344 4.36523 75.7422 4.61914C76.2565 4.87305 76.6862 5.23763 77.0312 5.71289C77.3828 6.18815 77.6465 6.75456 77.8223 7.41211C78.0046 8.06966 78.0957 8.79883 78.0957 9.59961ZM75.2734 9.80469V9.59961C75.2734 9.15039 75.2344 8.73698 75.1562 8.35938C75.0846 7.97526 74.9674 7.63997 74.8047 7.35352C74.6484 7.06706 74.4401 6.8457 74.1797 6.68945C73.9258 6.52669 73.6165 6.44531 73.252 6.44531C72.8678 6.44531 72.5391 6.50716 72.2656 6.63086C71.9987 6.75456 71.7806 6.93359 71.6113 7.16797C71.4421 7.40234 71.3151 7.68229 71.2305 8.00781C71.1458 8.33333 71.0938 8.70117 71.0742 9.11133V10.4688C71.1068 10.9505 71.1979 11.3835 71.3477 11.7676C71.4974 12.1452 71.7285 12.4447 72.041 12.666C72.3535 12.8874 72.7637 12.998 73.2715 12.998C73.6426 12.998 73.9551 12.9167 74.209 12.7539C74.4629 12.5846 74.668 12.3535 74.8242 12.0605C74.987 11.7676 75.1009 11.429 75.166 11.0449C75.2376 10.6608 75.2734 10.2474 75.2734 9.80469ZM82.5879 0V15H79.7754V0H82.5879ZM82.1875 9.3457H81.416C81.4225 8.61003 81.5202 7.93294 81.709 7.31445C81.8978 6.68945 82.168 6.14909 82.5195 5.69336C82.8711 5.23112 83.291 4.87305 83.7793 4.61914C84.2741 4.36523 84.821 4.23828 85.4199 4.23828C85.9408 4.23828 86.4128 4.31315 86.8359 4.46289C87.2656 4.60612 87.6335 4.84049 87.9395 5.16602C88.252 5.48503 88.4928 5.90495 88.6621 6.42578C88.8314 6.94661 88.916 7.57812 88.916 8.32031V15H86.084V8.30078C86.084 7.83203 86.0156 7.46419 85.8789 7.19727C85.7487 6.92383 85.5566 6.73177 85.3027 6.62109C85.0553 6.50391 84.7493 6.44531 84.3848 6.44531C83.9811 6.44531 83.6361 6.52018 83.3496 6.66992C83.0697 6.81966 82.8451 7.02799 82.6758 7.29492C82.5065 7.55534 82.3828 7.86133 82.3047 8.21289C82.2266 8.56445 82.1875 8.94206 82.1875 9.3457Z" fill="#FF0043"/>
</svg>
